<?xml version="1.0" encoding="iso-8859-1"?>
<!-- Generator: Adobe Illustrator 20.1.0, SVG Export Plug-In . SVG Version: 6.00 Build 0)  -->
<svg version="1.1" id="Layer_1" xmlns="http://www.w3.org/2000/svg" xmlns:xlink="http://www.w3.org/1999/xlink" x="0px" y="0px"
	 viewBox="0 0 118.8 134.64" style="enable-background:new 0 0 118.8 134.64;" xml:space="preserve">
<path style="fill:#009FB0;" d="M92.164,78.398c8.564-14.83,6.124-33.549-6.016-45.688c-7.137-7.137-16.641-11.067-26.762-11.067
	c-10.121,0-19.625,3.93-26.762,11.067S21.557,49.351,21.557,59.473c0,10.121,3.93,19.625,11.067,26.762l26.762,26.762
	c1.576-1.576,21.997-21.997,26.209-26.209c0.012-0.012,0.022-0.023,0.031-0.033C84.53,85.659,66.302,67.43,66.302,67.43l-0.8-0.8
	l0.001-0.001l-1.594-1.594c0,0-7.605-7.605-9.299-9.299c-1.859,2.359-1.693,5.84,0.473,8.006l21.577,21.577
	c0.39,0.39,0.604,0.903,0.604,1.444c0,0.524-0.21,1.033-0.576,1.399c-0.187,0.187-4.428,4.429-4.744,4.744
	c-0.47,0.47-0.969,0.569-1.304,0.569c-0.349,0-0.873-0.109-1.392-0.628c-4.784-4.783-21.243-21.243-21.757-21.759
	c-6.33-6.489-6.264-16.97,0.139-23.372c3.136-3.136,7.311-4.863,11.757-4.863s8.621,1.727,11.757,4.863
	c3.561,3.561,5.297,8.488,4.763,13.517c-0.048,0.453-0.061,0.847,0.256,1.164l4.039,4.039c2.617-7.862,0.578-16.617-5.292-22.487
	c-4.14-4.139-9.653-6.419-15.524-6.419c-5.871,0-11.384,2.28-15.523,6.419c-4.115,4.115-6.398,9.587-6.429,15.406
	c-0.031,5.814,2.187,11.303,6.246,15.456c0.037,0.038,1.716,1.718,21.67,21.672c0.98,0.98,0.793,2.224,0.12,2.898l-0.508,0.508
	c-1.17,1.17-3.911,3.911-4.132,4.133c-0.538,0.538-1.093,0.651-1.463,0.651c-0.498,0-0.98-0.207-1.356-0.583l-21.62-21.62
	c-12.68-12.68-12.68-33.311,0-45.991c6.133-6.133,14.299-9.511,22.995-9.511c8.696,0,16.863,3.378,22.996,9.511
	c4.975,4.975,8.144,11.283,9.163,18.243c0.982,6.707-0.178,13.695-3.267,19.683c-0.006,0.04-0.003,0.099,0.007,0.121L92.164,78.398z
	"/>
</svg>
