<?xml version="1.0" encoding="utf-8"?>
<!-- Generator: Adobe Illustrator 20.1.0, SVG Export Plug-In . SVG Version: 6.00 Build 0)  -->
<svg version="1.1" id="Layer_1" xmlns="http://www.w3.org/2000/svg" xmlns:xlink="http://www.w3.org/1999/xlink" x="0px" y="0px"
	 viewBox="0 0 202.3200073 182.8800049" style="enable-background:new 0 0 202.3200073 182.8800049;" xml:space="preserve">
<g>
	<polygon style="fill:#B9B9B9;" points="139.5712585,91.4393845 101.1601257,69.0602722 101.1601257,24.1794682 
		178.0014038,68.6219788 	"/>
	<polygon style="fill:#B9B9B9;" points="62.7299767,135.8329926 24.3188438,113.4538803 24.3188438,68.5730743 
		101.1601257,113.0155869 	"/>
	<path d="M179.3522186,66.2856445l-76.8411865-44.4423294l-0.0006638-0.0002632
		c-0.0009232-0.0005264-0.0014496-0.0010548-0.0014496-0.0010548c-0.6183319-0.3573971-1.3427429-0.4481964-2.0164261-0.2759552
		c-0.0080414,0.0021076-0.0164719,0.002636-0.0245132,0.0048752c-0.0697098,0.0184498-0.1374512,0.0450706-0.2058411,0.0693188
		c-0.0433578,0.0152874-0.0876389,0.0264893-0.1303406,0.0440159c-0.0448074,0.0184498-0.0872421,0.0436211-0.1312561,0.0645752
		c-0.0632553,0.0301781-0.1275635,0.057457-0.1889801,0.092907c-0.0005264,0.0002632-0.0010529,0.0007915-0.0010529,0.0007915
		l-0.0015793,0.0007896l-76.4284363,44.203537c-0.1402187,0.0521851-0.2780647,0.1120148-0.4101124,0.1881866
		c-0.8355103,0.4818039-1.350523,1.3731918-1.350523,2.3378525v44.8809052c0,0.9604416,0.5102692,1.848671,1.3405075,2.3320541
		l38.0671463,22.1784744c0.1050301,0.086319,0.2152023,0.1673584,0.3342018,0.2379913l38.4298172,22.817627
		c0.4248734,0.2525024,0.9014053,0.378479,1.3779297,0.378479c0.4691544,0,0.9388351-0.1222992,1.3584366-0.3668823
		l38.4113693-22.3790436c0.8302307-0.4833832,1.3404999-1.3716125,1.3404999-2.3320465V92.9700775l37.0993195-22.02771
		c0.8239136-0.4886551,1.3262787-1.3779373,1.3210144-2.3357391
		C180.6948242,67.6482925,180.1819305,66.7653427,179.3522186,66.2856445z M101.7176895,110.2206116L68.7437363,91.1493454
		l32.4188766-18.9638596l33.037735,19.2482529L101.7176895,110.2206116z M98.4610443,67.512291L63.3683929,88.0404282
		l-13.9415665-8.0634689l49.0342178-28.0045128V67.512291z M98.4610443,45.7563248L44.0191994,76.8493271l-14.2674713-8.2519226
		l68.7093201-39.7389603V45.7563248z M27.0177364,73.3041992l34.9370117,20.2343903
		c0.1729012,0.0998917,0.355423,0.1742172,0.5413704,0.2328644l33.3260803,19.2748718l-33.1052132,19.6553345
		l-35.6992493-20.7992249V73.3041992z M136.881897,96.1183929v16.8978806l-54.7261047,31.2551041l-14.0783615-8.3589325
		L136.881897,96.1183929z M101.1826477,155.5682983l-13.6905212-8.1285706l49.3897705-28.2073288v15.5366898
		L101.1826477,155.5682983z M139.5581665,88.308342l-35.6992493-20.7992096V28.8584423l68.8044586,39.7940445L139.5581665,88.308342
		z"/>
</g>
<g>
</g>
<g>
</g>
<g>
</g>
<g>
</g>
<g>
</g>
<g>
</g>
</svg>
