<?xml version="1.0" encoding="utf-8"?>
<!-- Generator: Adobe Illustrator 20.1.0, SVG Export Plug-In . SVG Version: 6.00 Build 0)  -->
<svg version="1.1" id="Layer_1" xmlns="http://www.w3.org/2000/svg" xmlns:xlink="http://www.w3.org/1999/xlink" x="0px" y="0px"
	 viewBox="0 0 331.7460938 194.9951172" style="enable-background:new 0 0 331.7460938 194.9951172;" xml:space="preserve">
<rect x="68.3754883" y="-68.3754883" transform="matrix(-1.836970e-16 1 -1 -1.836970e-16 263.3706055 -68.3754883)" width="194.9951172" height="331.7460938"/>
<g>
	<path style="fill:#009FB0;" d="M168.9784393,78.3551559c8.5642853-14.8296089,6.1236572-33.5488052-6.015686-45.6881409
		c-7.1368561-7.1365814-16.6411591-11.0667686-26.7623749-11.0667686c-10.1209564,0-19.6252518,3.9301872-26.7618332,11.0667686
		S98.3714981,49.3081703,98.3714981,59.4293938c0,10.1209526,3.9304657,19.625248,11.0670471,26.762104l26.7621078,26.7618332
		c1.5762634-1.5762711,21.9973907-21.9973907,26.2092438-26.2089767c0.0115967-0.0118713,0.0220947-0.0229187,0.0309296-0.0328598
		c-1.0963135-1.0960464-19.3242493-19.3242416-19.3242493-19.3242416l-0.8000031-0.799736l0.000824-0.0005569l-1.594223-1.5944977
		c0,0-7.605484-7.605484-9.2993927-9.299118c-1.8590546,2.3588829-1.6928101,5.8400497,0.473053,8.0061798l21.5765228,21.5765381
		c0.3899384,0.3899231,0.6045074,0.9027328,0.6042328,1.4439926c-0.0002899,0.5235825-0.2101593,1.0333557-0.5755005,1.3987045
		c-0.1869659,0.1869583-4.4283752,4.4286423-4.7440033,4.7442856c-0.4702911,0.4702835-0.96875,0.5691452-1.3037109,0.5691452
		c-0.3487854,0-0.8734741-0.1088028-1.3923645-0.6279678c-4.7837677-4.783493-21.2426682-21.2434998-21.7574081-21.759346
		c-6.3302231-6.489006-6.2636719-16.96978,0.1391754-23.3723488c3.1356964-3.1357002,7.3111038-4.862751,11.7568741-4.862751
		c4.445755,0,8.62117,1.7270508,11.7568665,4.862751c3.5612488,3.5609703,5.2974091,8.4877892,4.7633362,13.5170555
		c-0.0480499,0.4526138-0.0613098,0.8469582,0.2559814,1.164257l4.0390015,4.03899
		c2.616806-7.8623085,0.5782623-16.6168594-5.2918854-22.4870071c-4.1395111-4.1392326-9.6526031-6.4191399-15.5235748-6.4191399
		c-5.8707123,0-11.3837967,2.2799072-15.5233002,6.4191399c-4.1149368,4.1154823-6.3984299,9.5865936-6.4293594,15.4056549
		c-0.0312042,5.8140945,2.1871185,11.303154,6.2462692,15.4556427c0.0370026,0.0375519,1.7162781,1.7184906,21.6698761,21.6723557
		c0.9797821,0.9795074,0.7931061,2.2241287,0.1203918,2.8976593l-0.5078278,0.5075684
		c-1.1700592,1.1703262-3.9114227,3.9114075-4.1323395,4.1325989c-0.5382233,0.5379486-1.0927277,0.6506195-1.4630432,0.6506195
		c-0.4984589,0-0.980072-0.2068405-1.3556366-0.5826797l-21.6204376-21.6204453
		c-12.6800385-12.6797638-12.6800385-33.3113136,0-45.9910774c6.1327667-6.1330471,14.2993927-9.5106544,22.9954071-9.5106544
		c8.6962738,0,16.8628998,3.3776073,22.9956665,9.5106544c4.9754181,4.9751434,8.1439819,11.283268,9.1632538,18.242836
		c0.9822693,6.7066116-0.1778412,13.6948967-3.266861,19.6829643c-0.006073,0.0400391-0.0033112,0.098587,0.0066223,0.1206741
		L168.9784393,78.3551559z"/>
	<g>
		<g>
			<path style="fill:#FFFFFF;" d="M67.5406113,159.4994354H72.8069l-2.4853592-4.6658478h-1.679718
				c-1.714386,0-2.4541321-1.4167328-2.4541321-3.6547699v-31.440506c0-4.9192352-2.5611572-7.9539642-6.8142433-7.9539642
				h-2.7314796v4.6661301h1.9116096c1.3322906,0,2.3665276,1.1356659,2.3665276,2.6216888v31.3992538
				C60.920105,155.6032104,62.2156105,159.4994354,67.5406113,159.4994354z"/>
			<path style="fill:#FFFFFF;" d="M89.8483429,124.5243149c-10.1355896,0-18.0750732,7.822258-18.0750732,17.8078995
				c0,10.1734161,7.9687576,18.1425934,18.1417618,18.1425934c10.1361389,0,18.0760422-7.9691772,18.0760422-18.1425934
				C107.9910736,132.3465729,100.0218964,124.5243149,89.8483429,124.5243149z M89.9150314,155.6747437
				c-7.1441727,0-12.7405167-5.8607635-12.7405167-13.3425293c0-7.2567139,5.596344-12.9412842,12.7405167-12.9412842
				c7.1070328,0,12.6741028,5.6845703,12.6741028,12.9412842
				C102.5891342,149.8139801,97.0220642,155.6747437,89.9150314,155.6747437z"/>
			<path style="fill:#FFFFFF;" d="M185.4934998,125.153389h-10.8659973v-0.841713c0-7.0142441,4.4648132-8.061409,7.126358-8.061409
				c0.9499664,0,1.5218811,0.1239929,1.5274048,0.1253738l0.4376984,0.0958252v-4.8326492l-0.3026733-0.0502625
				c-0.0867004-0.0140839-0.8872681-0.1383514-2.1310577-0.1383514c-3.5855408,0-11.9253235,1.2531738-11.9253235,12.8614731
				v0.841713h-8.3142242c-3.0673523,0-4.5266724,0.5547867-5.6242371,3.9920425l-6.9528046,21.3277283
				c-0.1828003,0.5708008-0.3714142,1.2413025-0.5604401,1.992157l-0.1271667,0.5050812l-0.1456757-0.5001221
				c-0.2242279-0.7693481-0.432312-1.442337-0.618576-2.0007172l-8.3038788-25.1816864h-5.0679169l-8.3031921,25.1794891
				c-0.1902618,0.5708008-0.4048309,1.2658691-0.6377716,2.0667114l-0.1409683,0.4849243l-0.1313095-0.4876862
				c-0.2144318-0.7964172-0.4196167-1.4892883-0.6096115-2.0587158l-6.8847275-21.3238525
				c-1.0913467-3.417923-2.3617859-3.9953537-5.6254807-3.9953537h-5.8521957l2.6094894,4.6664047h1.7722015
				c1.1710205,0,1.6752701,0.3266907,1.9983673,1.2943268l9.7086563,28.3853149h5.596344l8.2367706-24.7605591
				c0.1659698-0.4611664,0.3221283-1.0687103,0.4597931-1.6047211c0.0700073-0.2725525,0.1353149-0.5263367,0.1945496-0.7328949
				l0.1394501-0.4868622l0.1328278,0.4887848c0.0622711,0.2292175,0.1311798,0.5169678,0.2044983,0.8240356
				c0.1203918,0.5039825,0.256958,1.075058,0.3950348,1.5064087l8.3049774,24.7658081h5.5297852l9.7098999-28.3900146
				c0.3097076-0.9278717,0.8697357-1.2896271,1.9971313-1.2896271h6.9104004v29.6796417h5.2675934v-29.674942h8.4132233
				L185.4934998,125.153389z"/>
			<path style="fill:#FFFFFF;" d="M201.2616882,124.3514404c-10.1355743,0-18.0752106,7.8222656-18.0752106,17.8079071
				c0,10.1734161,7.9689026,18.1425934,18.1420441,18.1425934c10.1358643,0,18.0757599-7.9691772,18.0757599-18.1425934
				C219.4042816,132.1737061,211.4351044,124.3514404,201.2616882,124.3514404z M201.3285217,155.5021515
				c-7.1443176,0-12.740799-5.8607635-12.740799-13.342804c0-7.2567139,5.5964813-12.9410095,12.740799-12.9410095
				c7.1070404,0,12.6739655,5.6842957,12.6739655,12.9410095
				C214.0024872,149.6413879,208.4355621,155.5021515,201.3285217,155.5021515z"/>
			<path style="fill:#FFFFFF;" d="M240.7027893,130.0871124h0.0002747l2.2445679-4.8862305h-0.0002747
				c-0.0475006-0.0171204-1.3034363-0.4677963-2.7642822-0.3816376c-4.4197998,0.2604141-7.9711151,2.6637573-9.9997101,6.7673645
				l-0.2681427,0.5423584v-1.4127045c0-3.8644562-2.3666229-5.5628738-6.1687469-5.5628738h-6.1291656l2.4524994,4.6664047
				h2.0249176c1.776413,0,2.6194611,0.8964691,2.6194611,3.2026825v26.4769592h5.2678528v-14.5324707
				C229.9820404,135.4955292,233.5891266,130.4891815,240.7027893,130.0871124z"/>
			<path style="fill:#FFFFFF;" d="M272.9608765,130.9290924c0-0.8417053,0.4092407-1.2509613,1.2512207-1.2509613h2.960083
				l2.7076721-4.3836288h-7.6063232c-2.7118225,0-4.0301514,1.274437-4.0301514,3.896492v0.5545197l-0.2601318-0.4026337
				c-1.1703491-1.8112793-4.1317749-4.8497696-10.8174133-4.8497696c-8.9856873,0-14.7920532,6.7508011-14.7920532,17.1987076
				c0,5.040863,1.4368286,9.3808594,4.1555328,12.5510712c2.7568207,3.2152405,6.5737762,4.9146729,11.0374908,4.9146729
				c4.5573425,0,7.9785767-1.6685028,10.169281-4.9591217l0.2728271-0.4098206l-0.0137939,0.4921112
				c-0.010498,0.3717041-0.0190735,0.8024902-0.0190735,1.2473755v2.9421082c0,6.572403-4.2079773,10.3418732-11.5450439,10.3418732
				l-0.4075928-0.0071716v4.5780334l0.2167664,0.0027618c0.0472107,0.000824,0.0936279,0.0024872,0.1402893,0.0049744
				c0.0618591,0.0024872,0.1228943,0.0052338,0.1842041,0.0052338c7.9263611,0,16.3962097-3.9564056,16.3962097-15.0601807
				V130.9290924z M258.2356567,154.6405487c-6.5262909,0-10.7434082-5.1090698-10.7434082-13.0158386
				c0-7.9741516,3.6965637-12.54776,10.1419373-12.54776c7.0037537,0,10.4084167,4.1262512,10.4084167,12.6148682
				C268.0426025,150.0418091,264.5597839,154.6405487,258.2356567,154.6405487z"/>
			<path style="fill:#FFFFFF;" d="M35.6071014,173.390686c0.0606155,0.0024872,0.1220589,0.0052338,0.1835022,0.0052338
				c7.9265137,0,16.3964882-3.9564056,16.3964882-15.0601807v-27.4066467c0-0.8417053,0.4091187-1.2509613,1.2508278-1.2509613
				h2.9603424v-4.3836288h-4.8987846c-2.7119446,0-4.0301552,1.274437-4.0301552,3.896492v0.554245l-0.2601357-0.4026337
				c-1.1703262-1.8112793-4.1316376-4.8494949-10.8169861-4.8494949c-8.9859657,0-14.7921867,6.7508011-14.7921867,17.1987076
				c0,5.040863,1.4369545,9.3808594,4.1555271,12.5510712c2.7570953,3.2152405,6.573782,4.9146729,11.0374928,4.9146729
				c4.5571899,0,7.9787064-1.6685028,10.1692772-4.9591217l0.2728348-0.4098206l-0.0138054,0.4921112
				c-0.0104942,0.3717041-0.0190544,0.8024902-0.0190544,1.2473755v2.9421082
				c0,6.572403-4.2081337,10.3418732-11.5453377,10.3418732l-0.4073219-0.0071716v4.5780334l0.2164993,0.0027618
				C35.5139008,173.3865356,35.5605698,173.3881989,35.6071014,173.390686z M37.4617348,154.6405487
				c-6.5262852,0-10.7432537-5.1090698-10.7432537-13.0158386c0-7.9741516,3.6965618-12.54776,10.1419353-12.54776
				c7.0038872,0,10.4085579,4.1262512,10.4085579,12.6148682C47.2689743,150.0418091,43.7860146,154.6405487,37.4617348,154.6405487
				z"/>
			<path style="fill:#FFFFFF;" d="M295.6809387,124.3514404c-4.6177979,0-8.8539734,1.7024765-11.9286194,4.7937164
				c-3.2773743,3.2955933-5.0096741,7.8650665-5.0096741,13.2144012c0,10.3965454,7.5452881,17.9423828,17.9412842,17.9423828
				c2.2707825,0,4.5324707-0.4255524,6.7220764-1.2650604l0.3247375-0.1245422l-1.5345764-4.4943542l-0.350708,0.1369629
				c-1.6157532,0.6285248-3.2848206,0.9472046-4.9607849,0.9472046c-7.1117249,0-12.3168945-5.1400146-12.6579285-12.4997253
				l-0.0069275-0.1480103h25.7621765l0.0309143-0.3421478c0.0223694-0.2510223,0.1339417-1.5423126,0.1339417-2.2912292
				C310.1468506,132.3220062,305.6737671,124.3514404,295.6809387,124.3514404z M284.4819031,138.5229797l0.035614-0.1703796
				c1.2026367-5.7516937,5.5583801-9.4684143,11.0968628-9.4684143c5.1151733,0,8.6880188,3.7239075,9.1027832,9.4871826
				l0.0107727,0.1516113H284.4819031z"/>
		</g>
	</g>
</g>
<g>
</g>
<g>
</g>
<g>
</g>
<g>
</g>
<g>
</g>
<g>
</g>
</svg>
