<?xml version="1.0" encoding="utf-8"?>
<!-- Generator: Adobe Illustrator 20.1.0, SVG Export Plug-In . SVG Version: 6.00 Build 0)  -->
<svg version="1.1" id="Layer_1" xmlns="http://www.w3.org/2000/svg" xmlns:xlink="http://www.w3.org/1999/xlink" x="0px" y="0px"
	 viewBox="0 0 331.9200134 105.1200027" style="enable-background:new 0 0 331.9200134 105.1200027;" xml:space="preserve">
<g>
	<g>
		<path d="M67.6271744,69.6363754h5.2662888L70.4081039,64.97052h-1.679718c-1.714386,0-2.4541321-1.416729-2.4541321-3.6547737
			V29.875246c0-4.9192333-2.5611534-7.9539642-6.8142395-7.9539642h-2.7314835v4.6661301h1.9116096
			c1.3322945,0,2.3665276,1.1356697,2.3665276,2.6216888v31.3992596
			C61.0066681,65.7401428,62.3021774,69.6363754,67.6271744,69.6363754z"/>
		<path d="M89.934906,34.6612473c-10.135582,0-18.0750732,7.8222656-18.0750732,17.8078995
			c0,10.1734161,7.9687576,18.1425934,18.1417618,18.1425934c10.1361389,0,18.0760422-7.9691772,18.0760422-18.1425934
			C108.0776367,42.4835129,100.1084595,34.6612473,89.934906,34.6612473z M90.0015945,65.811676
			c-7.1441727,0-12.7405167-5.8607597-12.7405167-13.3425293c0-7.2567062,5.596344-12.9412842,12.7405167-12.9412842
			c7.1070328,0,12.6741104,5.6845779,12.6741104,12.9412842C102.675705,59.9509163,97.1086273,65.811676,90.0015945,65.811676z"/>
		<path d="M185.5800781,35.2903214h-10.8660126v-0.8417091c0-7.0142441,4.4648132-8.0614109,7.126358-8.0614109
			c0.9499664,0,1.5218811,0.1239929,1.5274048,0.1253719l0.4376984,0.0958252v-4.8326492l-0.3026581-0.0502586
			c-0.0867157-0.0140839-0.8872833-0.1383514-2.131073-0.1383514c-3.5855408,0-11.9253082,1.2531738-11.9253082,12.8614731
			v0.8417091h-8.3142395c-3.0673523,0-4.5266724,0.5547867-5.6242371,3.9920464l-6.9527893,21.3277206
			c-0.1828156,0.5708046-0.3714294,1.2413025-0.5604553,1.992157l-0.1271667,0.5050812l-0.1456757-0.5001106
			c-0.2242279-0.7693596-0.432312-1.4423409-0.618576-2.0007172l-8.3038635-25.1816902h-5.0679321L125.4283676,60.60429
			c-0.1902695,0.5708046-0.4048386,1.2658768-0.6377716,2.0667152l-0.140976,0.4849243l-0.1313095-0.4876862
			c-0.2144318-0.7964211-0.4196167-1.4892845-0.6096039-2.0587082l-6.8847351-21.3238564
			c-1.0913467-3.417923-2.3617783-3.9953575-5.625473-3.9953575h-5.8522034l2.6094894,4.6664047h1.7722015
			c1.1710205,0,1.6752777,0.3266869,1.9983749,1.294323l9.7086487,28.3853264h5.5963516l8.236763-24.7605629
			c0.1659698-0.461174,0.3221283-1.0687065,0.4597931-1.6047173c0.0700073-0.2725601,0.1353149-0.5263443,0.1945496-0.7329063
			l0.1394501-0.4868546l0.1328278,0.4887886c0.0622711,0.2292061,0.1311798,0.5169563,0.2044983,0.8240356
			c0.1204071,0.5039787,0.256958,1.075058,0.3950348,1.5064049l8.3049774,24.7658119h5.5297852l9.7098999-28.3900223
			c0.3097076-0.9278679,0.8697357-1.2896271,1.9971313-1.2896271h6.9104156v29.6796494h5.2675781V39.961422h8.4132233
			L185.5800781,35.2903214z"/>
		<path d="M201.3482666,34.4883766c-10.1355896,0-18.0752258,7.8222656-18.0752258,17.8078995
			c0,10.1734161,7.9689026,18.1425896,18.1420441,18.1425896c10.1358643,0,18.0757751-7.9691734,18.0757751-18.1425896
			C219.49086,42.3106422,211.5216827,34.4883766,201.3482666,34.4883766z M201.4150848,65.6390839
			c-7.1443024,0-12.740799-5.8607635-12.740799-13.3428078c0-7.2567062,5.5964966-12.9410057,12.740799-12.9410057
			c7.1070404,0,12.6739655,5.6842995,12.6739655,12.9410057C214.0890503,59.7783203,208.5221252,65.6390839,201.4150848,65.6390839z
			"/>
		<path d="M240.7893524,40.224041h0.0002899l2.2445526-4.8862228h-0.0002747
			c-0.0475006-0.0171204-1.3034363-0.4678001-2.7642822-0.3816414c-4.4197998,0.2604141-7.9710999,2.6637573-9.9997101,6.7673683
			l-0.2681427,0.5423584v-1.4127007c0-3.8644638-2.3666077-5.5628815-6.1687469-5.5628815h-6.1291656l2.4524994,4.6664047h2.0249176
			c1.776413,0,2.6194611,0.8964767,2.6194611,3.2026901v26.4769592h5.2678528V55.1039047
			C230.0686035,45.6324654,233.675705,40.6261177,240.7893524,40.224041z"/>
		<path d="M273.0474243,41.0660286c0-0.8417091,0.4092712-1.2509651,1.2512512-1.2509651h2.9600525l2.7077026-4.3836288h-7.6063538
			c-2.711792,0-4.0301514,1.2744408-4.0301514,3.8964958v0.554512l-0.2601318-0.4026299
			c-1.1703186-1.8112755-4.1317749-4.8497696-10.8173828-4.8497696c-8.9857025,0-14.7920532,6.7507973-14.7920532,17.1987076
			c0,5.0408669,1.4368134,9.3808632,4.1555176,12.5510788c2.7568207,3.2152328,6.5737915,4.9146652,11.0375061,4.9146652
			c4.557312,0,7.9785461-1.6685028,10.1692505-4.9591217l0.2728577-0.4098091l-0.0138245,0.4920998
			c-0.010498,0.3716965-0.019043,0.8024979-0.019043,1.2473755v2.9421158c0,6.572403-4.2080078,10.3418732-11.5450745,10.3418732
			l-0.4075928-0.0071793v4.5780334l0.2167969,0.0027618c0.0472107,0.0008316,0.0935974,0.0024872,0.1402588,0.0049744
			c0.0618591,0.0024796,0.1228943,0.0052414,0.1842041,0.0052414c7.9263611,0,16.3962097-3.9564209,16.3962097-15.0601883
			V41.0660286z M258.3222046,64.7774887c-6.5262756,0-10.7433929-5.1090775-10.7433929-13.0158424
			c0-7.9741478,3.6965637-12.5477676,10.1419525-12.5477676c7.0037537,0,10.4084167,4.126255,10.4084167,12.614872
			C268.1291809,60.1787415,264.6463623,64.7774887,258.3222046,64.7774887z"/>
		<path d="M35.6936684,83.5276184c0.0606155,0.0024796,0.1220589,0.0052414,0.1835022,0.0052414
			c7.9265099,0,16.3964882-3.9564209,16.3964882-15.0601883V41.0660286c0-0.8417091,0.4091187-1.2509651,1.2508278-1.2509651
			h2.9603424v-4.3836288h-4.8987885c-2.7119446,0-4.0301514,1.2744408-4.0301514,3.8964958v0.5542374l-0.2601357-0.4026299
			c-1.17033-1.8112755-4.1316376-4.8494949-10.8169861-4.8494949c-8.9859676,0-14.7921867,6.7507973-14.7921867,17.1987076
			c0,5.0408669,1.4369526,9.3808632,4.1555252,12.5510788c2.7570953,3.2152328,6.5737839,4.9146652,11.0374947,4.9146652
			c4.5571861,0,7.9787025-1.6685028,10.1692734-4.9591217l0.2728386-0.4098091l-0.0138092,0.4920998
			c-0.0104942,0.3716965-0.0190544,0.8024979-0.0190544,1.2473755v2.9421158c0,6.572403-4.2081337,10.3418732-11.5453377,10.3418732
			l-0.4073219-0.0071793v4.5780334l0.2165031,0.0027618C35.6004677,83.5234756,35.6471367,83.5251312,35.6936684,83.5276184z
			 M37.5483017,64.7774887c-6.5262871,0-10.7432556-5.1090775-10.7432556-13.0158424
			c0-7.9741478,3.6965618-12.5477676,10.1419334-12.5477676c7.003891,0,10.4085617,4.126255,10.4085617,12.614872
			C47.3555412,60.1787415,43.8725815,64.7774887,37.5483017,64.7774887z"/>
		<path d="M295.7675171,34.4883766c-4.6178284,0-8.8539734,1.7024765-11.9286499,4.7937126
			c-3.2773743,3.2955894-5.0096436,7.8650665-5.0096436,13.2143974c0,10.3965454,7.5452576,17.942379,17.9412537,17.942379
			c2.270813,0,4.5324707-0.4255447,6.7220764-1.2650452l0.3247681-0.1245422l-1.5345764-4.4943695l-0.350708,0.1369705
			c-1.6157532,0.6285248-3.2848206,0.9472046-4.9607849,0.9472046c-7.1117249,0-12.3168945-5.140007-12.657959-12.4997177
			l-0.006897-0.1480179h25.7621765l0.0309143-0.3421516c0.0223694-0.2510223,0.1339417-1.542305,0.1339417-2.2912292
			C310.233429,42.4589348,305.7603149,34.4883766,295.7675171,34.4883766z M284.5684509,48.6599159l0.0356445-0.1703873
			c1.2026367-5.7516823,5.5583801-9.4684029,11.0968628-9.4684029c5.1151428,0,8.6879883,3.7239037,9.1027832,9.4871826
			l0.0107727,0.1516075H284.5684509z"/>
	</g>
</g>
</svg>
