<?xml version="1.0" encoding="utf-8"?>
<!-- Generator: Adobe Illustrator 20.1.0, SVG Export Plug-In . SVG Version: 6.00 Build 0)  -->
<svg version="1.1" id="Layer_1" xmlns="http://www.w3.org/2000/svg" xmlns:xlink="http://www.w3.org/1999/xlink" x="0px" y="0px"
	 viewBox="0 0 530.6400146 468.7200012" style="enable-background:new 0 0 530.6400146 468.7200012;" xml:space="preserve">
<g>
	<polygon style="fill:#D4B95E;" points="383.0873108,234.1488953 265.3229065,166.2729492 265.0800171,29.7296104 
		500.6653442,164.5208588 	"/>
	<polygon style="fill:#D4B95E;" points="147.9827118,369.6286621 30.2183113,301.7527161 29.9754257,165.2093811 
		265.5607605,300.0006104 	"/>
	<path d="M504.789856,157.4055634L269.204834,22.6148396l-0.0020142-0.0007992
		c-0.0028381-0.0015984-0.0044556-0.0031986-0.0044556-0.0031986c-1.8957214-1.0839634-4.1148987-1.3562603-6.1772766-0.8285694
		c-0.0246277,0.0064583-0.0504456,0.0081081-0.0750427,0.014967c-0.2134399,0.0565109-0.4207458,0.1378689-0.6300964,0.2120132
		c-0.1326904,0.0467453-0.2682495,0.0810661-0.3989258,0.1346226c-0.137146,0.0563736-0.2669678,0.1331844-0.4016724,0.1971722
		c-0.193573,0.0921593-0.3903809,0.1755028-0.5782776,0.2836876c-0.0016174,0.0008049-0.0032349,0.0024109-0.0032349,0.0024109
		l-0.0048523,0.0024147L27.0878372,157.5288086c-0.4291706,0.1595459-0.8510323,0.3423157-1.2550488,0.5747681
		c-2.556345,1.4703674-4.1288681,4.1850891-4.1236477,7.1199341l0.2428856,136.5436707
		c0.0051975,2.9219971,1.5728207,5.621521,4.1182442,7.087616l116.7097778,67.267395
		c0.3221588,0.2620239,0.6600189,0.5079956,1.0248718,0.7222595l117.8239899,69.2099304
		c1.3026428,0.7658691,2.7628174,1.1465759,4.2223206,1.1439819c1.4368896-0.0025635,2.8747253-0.3771973,4.1585083-1.1235962
		l117.5229187-68.294281c2.5401917-1.4751587,4.0982056-4.1802368,4.0929871-7.1022339l-0.2345886-131.887207
		l113.5063477-67.2182312c2.5207825-1.4911499,4.0545959-4.1993866,4.0332642-7.1133575
		C508.9093323,161.5438995,507.3336487,158.8604431,504.789856,157.4055634z M267.2533264,291.4942932l-101.0938568-57.8419189
		l99.187973-57.8714142l101.2901306,58.3800049L267.2533264,291.4942932z M257.0479126,161.5781555l-107.3685303,62.6450653
		l-42.7430344-24.4559937l150.0274963-85.4668045L257.0479126,161.5781555z M256.9301758,95.3887711L90.3572693,190.2813263
		l-43.7422028-25.0275421L256.8387451,43.9794197L256.9301758,95.3887711z M38.2670326,179.5884247l107.1124725,61.3698578
		c0.5300903,0.3029785,1.0895081,0.5281067,1.6593323,0.7055054L249.2122498,300.12323l-101.2862701,59.9788513
		l-109.450058-63.0841064L38.2670326,179.5884247z M374.8757935,248.3987579l0.0914612,51.4093475l-167.4426575,95.3872681
		l-43.1635895-25.3541565L374.8757935,248.3987579z M265.8600159,429.460968l-41.974472-24.655426l151.1153412-86.0857849
		l0.0840759,47.2681274L265.8600159,429.460968z M383.0302429,224.62323l-109.4500427-63.0841064l-0.2091675-117.5891113
		l210.9454956,120.6927643L383.0302429,224.62323z"/>
</g>
<g>
</g>
<g>
</g>
<g>
</g>
<g>
</g>
<g>
</g>
<g>
</g>
</svg>
