<?xml version="1.0" encoding="utf-8"?>
<!-- Generator: Adobe Illustrator 20.1.0, SVG Export Plug-In . SVG Version: 6.00 Build 0)  -->
<svg version="1.1" id="Layer_1" xmlns="http://www.w3.org/2000/svg" xmlns:xlink="http://www.w3.org/1999/xlink" x="0px" y="0px"
	 viewBox="0 0 709.9199829 182.8800049" style="enable-background:new 0 0 709.9199829 182.8800049;" xml:space="preserve">
<g>
	<g>
		<polygon style="fill:#D4B95E;" points="139.5423737,91.4393845 101.1312332,69.0602722 101.1312332,24.1794682 
			177.9725189,68.6219788 		"/>
		<polygon style="fill:#D4B95E;" points="62.7010841,135.8329926 24.2899513,113.4538803 24.2899513,68.5730743 
			101.1312332,113.0155869 		"/>
		<path d="M179.3233185,66.2856445l-76.8411789-44.4423294l-0.0006638-0.0002632
			c-0.0009232-0.0005264-0.0014496-0.0010548-0.0014496-0.0010548c-0.6183319-0.3573971-1.3427429-0.4481964-2.0164261-0.2759552
			c-0.0080414,0.0021076-0.0164719,0.002636-0.0245132,0.0048752c-0.0697098,0.0184498-0.1374512,0.0450706-0.2058487,0.0693188
			c-0.0433502,0.0152874-0.0876312,0.0264893-0.1303329,0.0440159c-0.0448074,0.0184498-0.0872421,0.0436211-0.1312561,0.0645752
			c-0.0632553,0.0301781-0.1275635,0.057457-0.1889801,0.092907c-0.0005264,0.0002632-0.0010529,0.0007915-0.0010529,0.0007915
			l-0.0015793,0.0007896l-76.4284363,44.203537c-0.1402187,0.0521851-0.2780647,0.1120148-0.4101124,0.1881866
			c-0.8355122,0.4818039-1.350523,1.3731918-1.350523,2.3378525v44.8809052c0,0.9604416,0.5102673,1.848671,1.3405075,2.3320541
			l38.0671463,22.1784744c0.1050339,0.086319,0.2152061,0.1673584,0.3342056,0.2379913l38.4298172,22.817627
			c0.4248734,0.2525024,0.9013977,0.378479,1.3779297,0.378479c0.4691544,0,0.9388351-0.1222992,1.3584366-0.3668823
			l38.4113617-22.3790436c0.830246-0.4833832,1.3405151-1.3716125,1.3405151-2.3320465V92.9700775l37.0993195-22.02771
			c0.8239136-0.4886551,1.3262787-1.3779373,1.3209991-2.3357391
			C180.6659393,67.6482925,180.1530304,66.7653427,179.3233185,66.2856445z M101.688797,110.2206116L68.7148438,91.1493454
			l32.4188766-18.9638596l33.0377426,19.2482529L101.688797,110.2206116z M98.4321518,67.512291L63.3395004,88.0404282
			L49.397934,79.9769592l49.0342178-28.0045128V67.512291z M98.4321518,45.7563248L43.990303,76.8493271l-14.2674694-8.2519226
			l68.7093201-39.7389603V45.7563248z M26.988842,73.3041992l34.9370117,20.2343903
			c0.1729012,0.0998917,0.3554192,0.1742172,0.5413666,0.2328644l33.3260841,19.2748718l-33.1052132,19.6553345
			L26.988842,111.9024353V73.3041992z M136.8529968,96.1183929v16.8978806l-54.7260971,31.2551041l-14.0783615-8.3589325
			L136.8529968,96.1183929z M101.1537552,155.5682983l-13.6905212-8.1285706l49.3897629-28.2073288v15.5366898
			L101.1537552,155.5682983z M139.5292664,88.308342l-35.6992416-20.7992096V28.8584423l68.8044662,39.7940445
			L139.5292664,88.308342z"/>
	</g>
	<polygon style="fill:#D4B95E;" points="240.5176697,115.3677444 240.5176697,115.4368286 240.5774536,115.4022903 	"/>
	<g>
		<path d="M189.0575562,105.3408813h-18.4467773c-0.2763672,0-0.5,0.2236328-0.5,0.5v53.3662109c0,0.2763672,0.2236328,0.5,0.5,0.5
			h5.237793c0.2763672,0,0.5-0.2236328,0.5-0.5v-20.4521484h12.7089844c10.1518555,0,16.9726562-6.7597656,16.9726562-16.8212891
			C206.0302124,112.0088501,199.2094116,105.3408813,189.0575562,105.3408813z M176.3485718,111.046936h12.1015625
			c7.0073242,0,11.1904297,4.0693359,11.1904297,10.8867188c0,6.8564453-4.3168945,11.1152344-11.2661133,11.1152344h-12.0258789
			V111.046936z"/>
		<path d="M243.8383179,137.4727173c-0.4609375-0.7958984-0.8310547-1.3652344-1.0756836-1.7226562
			c6.019043-1.9589844,9.8730469-7.6699219,9.8730469-14.7265625c0-6.5947266-3.1201172-11.9023438-8.3500977-14.2001953
			c-2.1352539-0.9150391-4.5893555-1.4824219-10.2172852-1.4824219h-15.7895508c-0.2763672,0-0.5,0.2236328-0.5,0.5v53.3662109
			c0,0.2763672,0.2236328,0.5,0.5,0.5h5.237793c0.2763672,0,0.5-0.2236328,0.5-0.5v-21.9697266h12.6376953l11.9287109,22.2060547
			c0.0869141,0.1621094,0.2563477,0.2636719,0.4404297,0.2636719h5.9970703c0.1762695,0,0.3393555-0.0927734,0.4296875-0.2441406
			c0.0898438-0.1513672,0.09375-0.3388672,0.0102539-0.4941406L243.8383179,137.4727173z M246.2460327,121.1748657
			c0,6.3876953-3.8515625,10.3554688-10.0522461,10.3554688h-12.1772461V111.046936h10.2797852
			c4.1665039,0,5.9047852,0.4716797,7.3549805,1.2314453C244.6141968,113.8682251,246.2460327,117.0274048,246.2460327,121.1748657z
			"/>
		<path d="M291.7567749,104.4297485c-15.5195312,0-27.6767578,12.1904297-27.6767578,27.7529297
			c0,15.9453125,12.1572266,28.4355469,27.6767578,28.4355469s27.6767578-12.4902344,27.6767578-28.4355469
			C319.4335327,116.6201782,307.2763062,104.4297485,291.7567749,104.4297485z M291.7567749,154.7598267
			c-11.894043,0-21.2109375-9.9169922-21.2109375-22.5771484c0-12.2773438,9.3168945-21.8945312,21.2109375-21.8945312
			s21.2109375,9.6171875,21.2109375,21.8945312C312.9677124,144.8428345,303.6508179,154.7598267,291.7567749,154.7598267z"/>
		<path d="M356.5795288,104.4297485c-15.5195312,0-27.6767578,12.1904297-27.6767578,27.7529297
			c0,15.9453125,12.1572266,28.4355469,27.6767578,28.4355469s27.6767578-12.4902344,27.6767578-28.4355469
			C384.2562866,116.6201782,372.0990601,104.4297485,356.5795288,104.4297485z M356.5795288,154.7598267
			c-11.894043,0-21.2109375-9.9169922-21.2109375-22.5771484c0-12.2773438,9.3168945-21.8945312,21.2109375-21.8945312
			s21.2109375,9.6171875,21.2109375,21.8945312C377.7904663,144.8428345,368.4735718,154.7598267,356.5795288,154.7598267z"/>
		<path d="M425.9569702,105.3408813h-28.0874023c-0.2763672,0-0.5,0.2236328-0.5,0.5v53.3662109c0,0.2763672,0.2236328,0.5,0.5,0.5
			h5.237793c0.2763672,0,0.5-0.2236328,0.5-0.5v-23.4121094h19.0854492c0.2763672,0,0.5-0.2236328,0.5-0.5v-4.7070312
			c0-0.2763672-0.2236328-0.5-0.5-0.5h-19.0854492V111.046936h22.3496094c0.2763672,0,0.5-0.2236328,0.5-0.5v-4.7060547
			C426.4569702,105.5645142,426.2333374,105.3408813,425.9569702,105.3408813z"/>
		<path d="M484.0258179,133.2002563H469.906189c-0.2763672,0-0.5,0.2236328-0.5,0.5v4.7070312c0,0.2763672,0.2236328,0.5,0.5,0.5
			h8.609375v8.3476562c-0.890625,1.0107422-6.9804688,7.5048828-16.2768555,7.5048828
			c-11.7890625,0-20.6791992-9.6083984-20.6791992-22.3496094c0-12.8183594,8.8886719-22.1220703,21.1347656-22.1220703
			c9.4047852,0,15.5566406,5.1416016,15.6176758,5.1943359c0.1069336,0.0917969,0.2470703,0.1357422,0.3857422,0.1152344
			c0.1391602-0.0175781,0.2646484-0.0917969,0.3457031-0.2060547l2.8085938-3.9472656
			c0.1450195-0.203125,0.1171875-0.4824219-0.0644531-0.6542969c-0.2753906-0.2597656-6.8916016-6.3603516-19.3208008-6.3603516
			c-15.3496094,0-27.3730469,12.3242188-27.3730469,28.0566406c0,16.0380859,11.4414062,28.1318359,26.6137695,28.1318359
			c9.1787109,0,14.972168-4.6464844,16.9804688-6.5742188c-0.0117188,0.3476562-0.0205078,0.7421875-0.0205078,1.1396484v4.0234375
			c0,0.2763672,0.2236328,0.5,0.5,0.5h4.8583984c0.2763672,0,0.5-0.2236328,0.5-0.5v-25.5068359
			C484.5258179,133.4238892,484.3021851,133.2002563,484.0258179,133.2002563z"/>
		<path d="M524.5346069,137.4727173c-0.4609375-0.7958984-0.8310547-1.3652344-1.0756836-1.7226562
			c6.019043-1.9589844,9.8730469-7.6699219,9.8730469-14.7265625c0-6.5947266-3.1201172-11.9023438-8.3500977-14.2001953
			c-2.1352539-0.9150391-4.5893555-1.4824219-10.2172852-1.4824219h-15.7895508c-0.2763672,0-0.5,0.2236328-0.5,0.5v53.3662109
			c0,0.2763672,0.2236328,0.5,0.5,0.5h5.237793c0.2763672,0,0.5-0.2236328,0.5-0.5v-21.9697266h12.6376953l11.9287109,22.2060547
			c0.0869141,0.1621094,0.2563477,0.2636719,0.4404297,0.2636719h5.9970703c0.1762695,0,0.3393555-0.0927734,0.4296875-0.2441406
			c0.0898438-0.1513672,0.09375-0.3388672,0.0102539-0.4941406L524.5346069,137.4727173z M526.9423218,121.1748657
			c0,6.3876953-3.8515625,10.3554688-10.0522461,10.3554688h-12.1772461V111.046936h10.2797852
			c4.1665039,0,5.9047852,0.4716797,7.3549805,1.2314453C525.3104858,113.8682251,526.9423218,117.0274048,526.9423218,121.1748657z
			"/>
		<path d="M567.8358765,105.6690063c-0.0722656-0.1972656-0.2597656-0.328125-0.4692383-0.328125h-5.6176758
			c-0.2094727,0-0.3969727,0.1308594-0.4692383,0.328125l-19.5854492,53.3662109
			c-0.0566406,0.1533203-0.0341797,0.3242188,0.059082,0.4580078c0.09375,0.1337891,0.246582,0.2138672,0.4101562,0.2138672
			h5.5415039c0.2114258,0,0.3999023-0.1328125,0.4707031-0.3320312l5.9550781-16.671875h20.7792969l6.0297852,16.6738281
			c0.0717773,0.1982422,0.2597656,0.3300781,0.4702148,0.3300781h5.5419922c0.1635742,0,0.3164062-0.0800781,0.4101562-0.2138672
			c0.0932617-0.1337891,0.1157227-0.3046875,0.059082-0.4580078L567.8358765,105.6690063z M572.9555054,137.147522h-16.9418945
			l6.8881836-18.6865234c0.5800781-1.5947266,1.2412109-3.9121094,1.6557617-5.4267578
			c0.4150391,1.5146484,1.0756836,3.8320312,1.6552734,5.4257812L572.9555054,137.147522z"/>
		<path d="M615.1869507,105.3408813h-17.2319336c-0.2763672,0-0.5,0.2236328-0.5,0.5v53.3662109c0,0.2763672,0.2236328,0.5,0.5,0.5
			h17.2319336c16.8374023,0,27.2973633-10.4306641,27.2973633-27.2207031
			C642.484314,115.7422485,632.024353,105.3408813,615.1869507,105.3408813z M603.6928101,111.046936h10.9628906
			c13.3764648,0,21.362793,8.0146484,21.362793,21.4394531c0,13.4707031-7.9863281,21.5136719-21.362793,21.5136719h-10.9628906
			V111.046936z"/>
		<path d="M687.8290405,154.000061h-25.6899414v-18.8125h19.7685547c0.2763672,0,0.5-0.2236328,0.5-0.5v-4.7070312
			c0-0.2763672-0.2236328-0.5-0.5-0.5h-19.7685547V111.046936h24.3232422c0.2763672,0,0.5-0.2236328,0.5-0.5v-4.7060547
			c0-0.2763672-0.2236328-0.5-0.5-0.5h-30.0610352c-0.2763672,0-0.5,0.2236328-0.5,0.5v53.3662109
			c0,0.2763672,0.2236328,0.5,0.5,0.5h31.4277344c0.2763672,0,0.5-0.2236328,0.5-0.5v-4.7070312
			C688.3290405,154.2236938,688.1054077,154.000061,687.8290405,154.000061z"/>
	</g>
</g>
<g>
</g>
<g>
</g>
<g>
</g>
<g>
</g>
<g>
</g>
<g>
</g>
</svg>
