<?xml version="1.0" encoding="utf-8"?>
<!-- Generator: Adobe Illustrator 20.1.0, SVG Export Plug-In . SVG Version: 6.00 Build 0)  -->
<svg version="1.1" id="Layer_1" xmlns="http://www.w3.org/2000/svg" xmlns:xlink="http://www.w3.org/1999/xlink" x="0px" y="0px"
	 viewBox="0 0 331.9200134 195.1199951" style="enable-background:new 0 0 331.9200134 195.1199951;" xml:space="preserve">
<path style="fill:#959595;" d="M169.0650024,78.4170685c8.5642853-14.8296089,6.1236572-33.5488052-6.015686-45.6881409
	c-7.1368561-7.1365814-16.6411591-11.0667667-26.7623749-11.0667667c-10.1209488,0-19.6252518,3.9301853-26.7618332,11.0667667
	S98.4580688,49.3700829,98.4580688,59.4913063c0,10.1209526,3.9304581,19.625248,11.0670395,26.762104l26.7621078,26.7618332
	c1.5762634-1.5762711,21.9973907-21.9973907,26.2092438-26.2089767c0.0115967-0.0118713,0.0220947-0.0229187,0.0309296-0.0328598
	c-1.0963135-1.0960464-19.324234-19.3242416-19.324234-19.3242416l-0.8000183-0.799736l0.000824-0.0005569l-1.594223-1.5944977
	c0,0-7.605484-7.605484-9.2993927-9.299118c-1.8590546,2.3588829-1.6928101,5.8400497,0.473053,8.0061798l21.5765381,21.5765381
	c0.3899231,0.3899231,0.6044922,0.9027328,0.6042175,1.4439926c-0.0002747,0.5235825-0.2101593,1.0333557-0.5755005,1.3987045
	c-0.1869659,0.1869583-4.42836,4.4286423-4.7440033,4.7442856c-0.4702911,0.4702835-0.96875,0.5691452-1.3037109,0.5691452
	c-0.3487854,0-0.8734741-0.1088028-1.3923645-0.6279678c-4.7837677-4.783493-21.2426605-21.2434998-21.7574081-21.759346
	c-6.3302231-6.489006-6.2636642-16.96978,0.1391754-23.3723488c3.135704-3.1357002,7.3111038-4.862751,11.7568741-4.862751
	c4.445755,0,8.62117,1.7270508,11.7568665,4.862751c3.5612488,3.5609703,5.2974091,8.4877892,4.7633362,13.5170555
	c-0.0480499,0.4526138-0.0613098,0.8469582,0.2559967,1.164257l4.0389862,4.03899
	c2.616806-7.8623085,0.5782623-16.6168594-5.2918854-22.4870071c-4.1395111-4.1392326-9.6526031-6.4191399-15.5235748-6.4191399
	c-5.8707123,0-11.3837891,2.2799072-15.5233002,6.4191399c-4.1149292,4.1154823-6.3984299,9.5865936-6.4293594,15.4056549
	c-0.0312042,5.8140945,2.1871185,11.303154,6.2462692,15.4556427c0.0370026,0.0375519,1.7162781,1.7184906,21.6698761,21.6723557
	c0.9797821,0.9795151,0.7931061,2.2241287,0.1204071,2.8976593l-0.507843,0.5075684
	c-1.1700592,1.1703262-3.9114075,3.9114075-4.1323395,4.1325989c-0.538208,0.5379486-1.0927277,0.6506195-1.4630432,0.6506195
	c-0.4984589,0-0.9800568-0.2068405-1.3556213-0.5826797l-21.6204529-21.6204453
	c-12.6800385-12.6797638-12.6800385-33.3113136,0-45.9910774c6.1327744-6.1330471,14.2993927-9.5106544,22.9954071-9.5106544
	c8.6962738,0,16.8628998,3.3776073,22.9956665,9.5106544c4.9754333,4.9751434,8.1439819,11.283268,9.163269,18.242836
	c0.9822693,6.7066116-0.1778564,13.6948967-3.2668762,19.6829643c-0.006073,0.0400391-0.0033112,0.098587,0.0066223,0.1206741
	L169.0650024,78.4170685z"/>
<g>
	<g>
		<path d="M67.6271744,159.5613556h5.2662888l-2.4853592-4.665863h-1.679718c-1.714386,0-2.4541321-1.4167175-2.4541321-3.6547699
			v-31.4404984c0-4.9192352-2.5611534-7.9539642-6.8142395-7.9539642h-2.7314835v4.6661301h1.9116096
			c1.3322945,0,2.3665276,1.1356735,2.3665276,2.6216888v31.3992615
			C61.0066681,155.6651154,62.3021774,159.5613556,67.6271744,159.5613556z"/>
		<path d="M89.934906,124.5862274c-10.135582,0-18.0750732,7.8222656-18.0750732,17.8078918
			c0,10.1734161,7.9687576,18.1425934,18.1417618,18.1425934c10.1361389,0,18.0760422-7.9691772,18.0760422-18.1425934
			C108.0776367,132.408493,100.1084595,124.5862274,89.934906,124.5862274z M90.0015945,155.7366486
			c-7.1441727,0-12.7405167-5.8607483-12.7405167-13.3425293c0-7.2566986,5.596344-12.9412689,12.7405167-12.9412689
			c7.1070328,0,12.6741104,5.6845703,12.6741104,12.9412689C102.675705,149.8759003,97.1086273,155.7366486,90.0015945,155.7366486z
			"/>
		<path d="M185.5800781,125.2153015h-10.8660126v-0.841713c0-7.0142441,4.4648132-8.061409,7.126358-8.061409
			c0.9499664,0,1.5218811,0.1239929,1.5274048,0.1253738l0.4376984,0.0958252v-4.8326492l-0.3026581-0.0502625
			c-0.0867157-0.0140839-0.8872833-0.1383514-2.131073-0.1383514c-3.5855408,0-11.9253082,1.2531738-11.9253082,12.8614731v0.841713
			h-8.3142395c-3.0673523,0-4.5266724,0.5547867-5.6242371,3.9920502l-6.9527893,21.327713
			c-0.1828156,0.5708008-0.3714294,1.2413025-0.5604553,1.992157l-0.1271667,0.5050812l-0.1456757-0.5001068
			c-0.2242279-0.7693634-0.432312-1.442337-0.618576-2.0007172l-8.3038635-25.181694h-5.0679321l-8.3031845,25.1794815
			c-0.1902695,0.5708008-0.4048386,1.2658844-0.6377716,2.0667114l-0.140976,0.4849243l-0.1313095-0.4876862
			c-0.2144318-0.7964172-0.4196167-1.4892731-0.6096039-2.0587006l-6.8847351-21.3238525
			c-1.0913467-3.4179306-2.3617783-3.9953613-5.625473-3.9953613h-5.8522034l2.6094894,4.6663971h1.7722015
			c1.1710205,0,1.6752777,0.3266907,1.9983749,1.2943268l9.7086487,28.3853302h5.5963516l8.236763-24.7605591
			c0.1659698-0.4611816,0.3221283-1.0687103,0.4597931-1.6047211c0.0700073-0.2725677,0.1353149-0.5263519,0.1945496-0.7329102
			l0.1394501-0.4868469l0.1328278,0.4887848c0.0622711,0.2292023,0.1311798,0.5169525,0.2044983,0.8240356
			c0.1204071,0.5039825,0.256958,1.075058,0.3950348,1.5064087l8.3049774,24.7658081h5.5297852l9.7098999-28.3900299
			c0.3097076-0.9278564,0.8697357-1.2896271,1.9971313-1.2896271h6.9104156v29.679657h5.2675781v-29.6749573h8.4132233
			L185.5800781,125.2153015z"/>
		<path d="M201.3482666,124.413353c-10.1355896,0-18.0752258,7.8222733-18.0752258,17.8078995
			c0,10.1734161,7.9689026,18.1425934,18.1420441,18.1425934c10.1358643,0,18.0757751-7.9691772,18.0757751-18.1425934
			C219.49086,132.2356262,211.5216827,124.413353,201.3482666,124.413353z M201.4150848,155.5640564
			c-7.1443024,0-12.740799-5.8607635-12.740799-13.342804c0-7.2566986,5.5964966-12.9410095,12.740799-12.9410095
			c7.1070404,0,12.6739655,5.6843109,12.6739655,12.9410095
			C214.0890503,149.7032928,208.5221252,155.5640564,201.4150848,155.5640564z"/>
		<path d="M240.7893524,130.1490173h0.0002899l2.2445526-4.8862228h-0.0002747
			c-0.0475006-0.0171204-1.3034363-0.4677963-2.7642822-0.3816376c-4.4197998,0.2604141-7.9710999,2.6637573-9.9997101,6.7673721
			l-0.2681427,0.5423584v-1.4127045c0-3.8644638-2.3666077-5.5628815-6.1687469-5.5628815h-6.1291656l2.4524994,4.6663971h2.0249176
			c1.776413,0,2.6194611,0.8964844,2.6194611,3.2026978v26.4769592h5.2678528v-14.5324707
			C230.0686035,135.5574493,233.675705,130.5511017,240.7893524,130.1490173z"/>
		<path d="M273.0474243,130.9910126c0-0.8417206,0.4092712-1.2509766,1.2512512-1.2509766h2.9600525l2.7077026-4.3836212h-7.6063538
			c-2.711792,0-4.0301514,1.274437-4.0301514,3.8964996v0.5545044l-0.2601318-0.4026337
			c-1.1703186-1.8112717-4.1317749-4.849762-10.8173828-4.849762c-8.9857025,0-14.7920532,6.7507935-14.7920532,17.1987
			c0,5.0408783,1.4368134,9.3808746,4.1555176,12.5510864c2.7568207,3.2152252,6.5737915,4.9146729,11.0375061,4.9146729
			c4.557312,0,7.9785461-1.6685181,10.1692505-4.959137l0.2728577-0.4098053l-0.0138245,0.4920959
			c-0.010498,0.3717041-0.019043,0.8025055-0.019043,1.2473755v2.9421234c0,6.572403-4.2080078,10.3418732-11.5450745,10.3418732
			l-0.4075928-0.0071869v4.5780334l0.2167969,0.0027618c0.0472107,0.0008392,0.0935974,0.0024872,0.1402588,0.0049744
			c0.0618591,0.0024872,0.1228943,0.005249,0.1842041,0.005249c7.9263611,0,16.3962097-3.9564209,16.3962097-15.0601959V130.9910126
			z M258.3222046,154.7024689c-6.5262756,0-10.7433929-5.1090851-10.7433929-13.0158386
			c0-7.9741516,3.6965637-12.5477753,10.1419525-12.5477753c7.0037537,0,10.4084167,4.1262512,10.4084167,12.6148682
			C268.1291809,150.103714,264.6463623,154.7024689,258.3222046,154.7024689z"/>
		<path d="M35.6936684,173.4525909c0.0606155,0.0024872,0.1220589,0.005249,0.1835022,0.005249
			c7.9265099,0,16.3964882-3.9564209,16.3964882-15.0601959v-27.4066315c0-0.8417206,0.4091187-1.2509766,1.2508278-1.2509766
			h2.9603424v-4.3836212h-4.8987885c-2.7119446,0-4.0301514,1.274437-4.0301514,3.8964996v0.5542297l-0.2601357-0.4026337
			c-1.17033-1.8112717-4.1316376-4.8494873-10.8169861-4.8494873c-8.9859676,0-14.7921867,6.7507935-14.7921867,17.1987
			c0,5.0408783,1.4369526,9.3808746,4.1555252,12.5510864c2.7570953,3.2152252,6.5737839,4.9146729,11.0374947,4.9146729
			c4.5571861,0,7.9787025-1.6685181,10.1692734-4.959137l0.2728386-0.4098053l-0.0138092,0.4920959
			c-0.0104942,0.3717041-0.0190544,0.8025055-0.0190544,1.2473755v2.9421234c0,6.572403-4.2081337,10.3418732-11.5453377,10.3418732
			l-0.4073219-0.0071869v4.5780334l0.2165031,0.0027618C35.6004677,173.4484558,35.6471367,173.4501038,35.6936684,173.4525909z
			 M37.5483017,154.7024689c-6.5262871,0-10.7432556-5.1090851-10.7432556-13.0158386
			c0-7.9741516,3.6965618-12.5477753,10.1419334-12.5477753c7.003891,0,10.4085617,4.1262512,10.4085617,12.6148682
			C47.3555412,150.103714,43.8725815,154.7024689,37.5483017,154.7024689z"/>
		<path d="M295.7675171,124.413353c-4.6178284,0-8.8539734,1.7024765-11.9286499,4.7937088
			c-3.2773743,3.2955933-5.0096436,7.8650665-5.0096436,13.2144012c0,10.3965454,7.5452576,17.9423828,17.9412537,17.9423828
			c2.270813,0,4.5324707-0.4255524,6.7220764-1.2650452l0.3247681-0.1245422l-1.5345764-4.4943695l-0.350708,0.1369781
			c-1.6157532,0.6285095-3.2848206,0.9471893-4.9607849,0.9471893c-7.1117249,0-12.3168945-5.1399994-12.657959-12.4997101
			l-0.006897-0.1480255h25.7621765l0.0309143-0.3421478c0.0223694-0.2510223,0.1339417-1.5422974,0.1339417-2.2912292
			C310.233429,132.3839111,305.7603149,124.413353,295.7675171,124.413353z M284.5684509,138.5848999l0.0356445-0.1703949
			c1.2026367-5.7516785,5.5583801-9.468399,11.0968628-9.468399c5.1151428,0,8.6879883,3.7239075,9.1027832,9.4871826
			l0.0107727,0.1516113H284.5684509z"/>
	</g>
</g>
<g>
</g>
<g>
</g>
<g>
</g>
<g>
</g>
<g>
</g>
<g>
</g>
</svg>
