<?xml version="1.0" encoding="utf-8"?>
<!-- Generator: Adobe Illustrator 20.1.0, SVG Export Plug-In . SVG Version: 6.00 Build 0)  -->
<svg version="1.1" id="Layer_1" xmlns="http://www.w3.org/2000/svg" xmlns:xlink="http://www.w3.org/1999/xlink" x="0px" y="0px"
	 viewBox="0 0 202.2802734 182.6655273" style="enable-background:new 0 0 202.2802734 182.6655273;" xml:space="preserve">
<rect x="9.807373" y="-9.807373" transform="matrix(-1.836970e-16 1 -1 -1.836970e-16 192.4729004 -9.807373)" width="182.6655273" height="202.2802734"/>
<g>
	<polygon style="fill:#D4B95E;" points="139.5514374,91.473465 101.1403122,69.0943527 101.1403122,24.2135468 
		177.9815979,68.6560516 	"/>
	<polygon style="fill:#D4B95E;" points="62.7101593,135.8670807 24.2990265,113.4879608 24.2990265,68.6071548 
		101.1403122,113.0496597 	"/>
	<path style="fill:#FFFFFF;" d="M179.3323975,66.319725l-76.8411865-44.4423332l-0.0006561-0.0002632
		c-0.0009232-0.0005264-0.0014496-0.0010548-0.0014496-0.0010548c-0.6183319-0.357399-1.3427505-0.4481964-2.0164261-0.2759552
		c-0.0080414,0.0021076-0.0164795,0.002636-0.0245132,0.0048752c-0.0697174,0.0184498-0.1374512,0.0450706-0.2058487,0.0693188
		c-0.0433578,0.0152874-0.0876389,0.0264893-0.1303329,0.0440159c-0.0448074,0.0184498-0.0872421,0.0436211-0.1312561,0.0645752
		c-0.0632553,0.0301781-0.1275711,0.057457-0.1889801,0.092907c-0.0005264,0.0002632-0.0010529,0.0007915-0.0010529,0.0007915
		l-0.0015869,0.0007896L23.3606777,66.0809326c-0.1402187,0.0521851-0.2780647,0.1120148-0.4101124,0.1881866
		c-0.8355103,0.4818039-1.350523,1.3731918-1.350523,2.3378525v44.8809052c0,0.9604416,0.5102673,1.848671,1.3405075,2.3320541
		l38.0671463,22.1784668c0.1050339,0.086319,0.2152061,0.1673584,0.3342056,0.2380066l38.4298134,22.8176117
		c0.4248734,0.2525024,0.9014053,0.3784943,1.3779373,0.3784943c0.4691544,0,0.9388275-0.1222992,1.358429-0.3668976
		l38.4113693-22.3790436c0.8302307-0.4833832,1.3404999-1.3715973,1.3404999-2.3320465V93.0041504l37.0993347-22.0277023
		c0.8239136-0.4886551,1.3262634-1.3779373,1.3209991-2.3357468
		C180.6750031,67.682373,180.1621094,66.7994156,179.3323975,66.319725z M101.6978683,110.2546844L68.7239151,91.1834259
		l32.4188843-18.9638596l33.0377426,19.2482452L101.6978683,110.2546844z M98.4412231,67.5463715L63.3485756,88.0745087
		l-13.9415665-8.0634766l49.034214-28.004509V67.5463715z M98.4412231,45.7904015L43.999382,76.8834l-14.2674713-8.2519226
		l68.7093124-39.7389565V45.7904015z M26.9979172,73.3382797L61.9349289,93.57267
		c0.1729012,0.0998917,0.355423,0.1742172,0.5413704,0.2328644l33.3260841,19.2748642l-33.105217,19.6553345l-35.6992493-20.7992172
		V73.3382797z M136.8620758,96.1524734v16.8978806l-54.7260971,31.2550964l-14.0783615-8.3589325L136.8620758,96.1524734z
		 M101.1628265,155.6023712l-13.6905212-8.1285706l49.3897705-28.2073212v15.5366821L101.1628265,155.6023712z
		 M139.5383453,88.3424225l-35.6992493-20.7992172V28.8925209l68.8044586,39.7940483L139.5383453,88.3424225z"/>
</g>
<g>
</g>
<g>
</g>
<g>
</g>
<g>
</g>
<g>
</g>
<g>
</g>
</svg>
