<?xml version="1.0" encoding="utf-8"?>
<!-- Generator: Adobe Illustrator 20.1.0, SVG Export Plug-In . SVG Version: 6.00 Build 0)  -->
<svg version="1.1" id="Layer_1" xmlns="http://www.w3.org/2000/svg" xmlns:xlink="http://www.w3.org/1999/xlink" x="0px" y="0px"
	 viewBox="0 0 701.2490234 183.6499023" style="enable-background:new 0 0 701.2490234 183.6499023;" xml:space="preserve">
<rect x="258.7995605" y="-258.7995605" transform="matrix(-1.836970e-16 1 -1 -1.836970e-16 442.4494629 -258.7995605)" width="183.6499023" height="701.2490234"/>
<g>
	<polygon style="fill:#F5F7F5;" points="233.2043762,115.4851913 233.2043762,115.5542679 233.2641754,115.5197296 	"/>
	<path style="fill:#F5F7F5;" d="M181.7442627,106.7737503h-18.4467773c-0.2763672,0-0.5,0.2236328-0.5,0.5v53.3662186
		c0,0.2763672,0.2236328,0.5,0.5,0.5h5.237793c0.2763672,0,0.5-0.2236328,0.5-0.5v-20.4521484h12.7089844
		c10.1518555,0,16.9726562-6.7597656,16.9726562-16.8212967
		C198.7169189,113.4417191,191.8961182,106.7737503,181.7442627,106.7737503z M169.0352783,112.479805h12.1015625
		c7.0073242,0,11.1904297,4.0693359,11.1904297,10.8867188c0,6.8564529-4.3168945,11.115242-11.2661133,11.115242h-12.0258789
		V112.479805z"/>
	<path style="fill:#F5F7F5;" d="M236.5250244,138.9055939c-0.4609375-0.7958984-0.8310547-1.3652344-1.0756836-1.7226562
		c6.019043-1.9589844,9.8730469-7.6699219,9.8730469-14.7265701c0-6.5947266-3.1201172-11.9023438-8.3500977-14.2001953
		c-2.1352539-0.9150391-4.5893555-1.4824219-10.2172852-1.4824219h-15.7895508c-0.2763672,0-0.5,0.2236328-0.5,0.5v53.3662186
		c0,0.2763672,0.2236328,0.5,0.5,0.5h5.237793c0.2763672,0,0.5-0.2236328,0.5-0.5v-21.9697266h12.6376953l11.9287109,22.2060547
		c0.0869141,0.1621094,0.2563477,0.2636719,0.4404297,0.2636719h5.9970703c0.1762695,0,0.3393555-0.0927734,0.4296875-0.2441406
		c0.0898438-0.1513672,0.09375-0.3388672,0.0102539-0.4941406L236.5250244,138.9055939z M238.9327393,122.6077347
		c0,6.3877029-3.8515625,10.3554764-10.0522461,10.3554764h-12.1772461V112.479805h10.2797852
		c4.1665039,0,5.9047852,0.4716797,7.3549805,1.2314453C237.3009033,115.3010941,238.9327393,118.4602737,238.9327393,122.6077347z"
		/>
	<path style="fill:#F5F7F5;" d="M284.4434814,105.8626175c-15.5195312,0-27.6767578,12.1904297-27.6767578,27.7529373
		c0,15.9453125,12.1572266,28.4355469,27.6767578,28.4355469s27.6767578-12.4902344,27.6767578-28.4355469
		C312.1202393,118.0530472,299.9630127,105.8626175,284.4434814,105.8626175z M284.4434814,156.1927032
		c-11.894043,0-21.2109375-9.9169922-21.2109375-22.5771484c0-12.2773514,9.3168945-21.8945389,21.2109375-21.8945389
		s21.2109375,9.6171875,21.2109375,21.8945389C305.6544189,146.2757111,296.3375244,156.1927032,284.4434814,156.1927032z"/>
	<path style="fill:#F5F7F5;" d="M349.2662354,105.8626175c-15.5195312,0-27.6767578,12.1904297-27.6767578,27.7529373
		c0,15.9453125,12.1572266,28.4355469,27.6767578,28.4355469s27.6767578-12.4902344,27.6767578-28.4355469
		C376.9429932,118.0530472,364.7857666,105.8626175,349.2662354,105.8626175z M349.2662354,156.1927032
		c-11.894043,0-21.2109375-9.9169922-21.2109375-22.5771484c0-12.2773514,9.3168945-21.8945389,21.2109375-21.8945389
		s21.2109375,9.6171875,21.2109375,21.8945389C370.4771729,146.2757111,361.1602783,156.1927032,349.2662354,156.1927032z"/>
	<path style="fill:#F5F7F5;" d="M418.6436768,106.7737503h-28.0874023c-0.2763672,0-0.5,0.2236328-0.5,0.5v53.3662186
		c0,0.2763672,0.2236328,0.5,0.5,0.5h5.237793c0.2763672,0,0.5-0.2236328,0.5-0.5v-23.4121094h19.0854492
		c0.2763672,0,0.5-0.2236328,0.5-0.5v-4.7070312c0-0.2763672-0.2236328-0.5-0.5-0.5h-19.0854492V112.479805h22.3496094
		c0.2763672,0,0.5-0.2236328,0.5-0.5v-4.7060547C419.1436768,106.9973831,418.9200439,106.7737503,418.6436768,106.7737503z"/>
	<path style="fill:#F5F7F5;" d="M476.7125244,134.6331329h-14.1196289c-0.2763672,0-0.5,0.2236328-0.5,0.5v4.7070312
		c0,0.2763672,0.2236328,0.5,0.5,0.5h8.609375v8.3476562c-0.890625,1.0107422-6.9804688,7.5048828-16.2768555,7.5048828
		c-11.7890625,0-20.6791992-9.6083984-20.6791992-22.3496094c0-12.818367,8.8886719-22.1220779,21.1347656-22.1220779
		c9.4047852,0,15.5566406,5.1416016,15.6176758,5.1943359c0.1069336,0.0917969,0.2470703,0.1357422,0.3857422,0.1152344
		c0.1391602-0.0175781,0.2646484-0.0917969,0.3457031-0.2060547l2.8085938-3.9472656
		c0.1450195-0.203125,0.1171875-0.4824219-0.0644531-0.6542969c-0.2753906-0.2597656-6.8916016-6.3603516-19.3208008-6.3603516
		c-15.3496094,0-27.3730469,12.3242188-27.3730469,28.0566483c0,16.0380859,11.4414062,28.1318359,26.6137695,28.1318359
		c9.1787109,0,14.972168-4.6464844,16.9804688-6.5742188c-0.0117188,0.3476562-0.0205078,0.7421875-0.0205078,1.1396484v4.0234375
		c0,0.2763672,0.2236328,0.5,0.5,0.5h4.8583984c0.2763672,0,0.5-0.2236328,0.5-0.5v-25.5068359
		C477.2125244,134.8567657,476.9888916,134.6331329,476.7125244,134.6331329z"/>
	<path style="fill:#F5F7F5;" d="M517.2213135,138.9055939c-0.4609375-0.7958984-0.8310547-1.3652344-1.0756836-1.7226562
		c6.019043-1.9589844,9.8730469-7.6699219,9.8730469-14.7265701c0-6.5947266-3.1201172-11.9023438-8.3500977-14.2001953
		c-2.1352539-0.9150391-4.5893555-1.4824219-10.2172852-1.4824219h-15.7895508c-0.2763672,0-0.5,0.2236328-0.5,0.5v53.3662186
		c0,0.2763672,0.2236328,0.5,0.5,0.5h5.237793c0.2763672,0,0.5-0.2236328,0.5-0.5v-21.9697266h12.6376953l11.9287109,22.2060547
		c0.0869141,0.1621094,0.2563477,0.2636719,0.4404297,0.2636719h5.9970703c0.1762695,0,0.3393555-0.0927734,0.4296875-0.2441406
		c0.0898438-0.1513672,0.09375-0.3388672,0.0102539-0.4941406L517.2213135,138.9055939z M519.6290283,122.6077347
		c0,6.3877029-3.8515625,10.3554764-10.0522461,10.3554764h-12.1772461V112.479805h10.2797852
		c4.1665039,0,5.9047852,0.4716797,7.3549805,1.2314453C517.9971924,115.3010941,519.6290283,118.4602737,519.6290283,122.6077347z"
		/>
	<path style="fill:#F5F7F5;" d="M560.522583,107.1018753c-0.0722656-0.1972656-0.2597656-0.328125-0.4692383-0.328125h-5.6176758
		c-0.2094727,0-0.3969727,0.1308594-0.4692383,0.328125l-19.5854492,53.3662186
		c-0.0566406,0.1533203-0.0341797,0.3242188,0.059082,0.4580078c0.09375,0.1337891,0.246582,0.2138672,0.4101562,0.2138672
		h5.5415039c0.2114258,0,0.3999023-0.1328125,0.4707031-0.3320312l5.9550781-16.671875h20.7792969l6.0297852,16.6738281
		c0.0717773,0.1982422,0.2597656,0.3300781,0.4702148,0.3300781h5.5419922c0.1635742,0,0.3164062-0.0800781,0.4101562-0.2138672
		c0.0932617-0.1337891,0.1157227-0.3046875,0.059082-0.4580078L560.522583,107.1018753z M565.6422119,138.5803986h-16.9418945
		l6.8881836-18.6865311c0.5800781-1.5947266,1.2412109-3.9121094,1.6557617-5.4267578
		c0.4150391,1.5146484,1.0756836,3.8320312,1.6552734,5.4257812L565.6422119,138.5803986z"/>
	<path style="fill:#F5F7F5;" d="M607.8736572,106.7737503h-17.2319336c-0.2763672,0-0.5,0.2236328-0.5,0.5v53.3662186
		c0,0.2763672,0.2236328,0.5,0.5,0.5h17.2319336c16.8374023,0,27.2973633-10.4306641,27.2973633-27.2207031
		C635.1710205,117.1751175,624.7110596,106.7737503,607.8736572,106.7737503z M596.3795166,112.479805h10.9628906
		c13.3764648,0,21.362793,8.0146484,21.362793,21.4394608c0,13.4707031-7.9863281,21.5136719-21.362793,21.5136719h-10.9628906
		V112.479805z"/>
	<path style="fill:#F5F7F5;" d="M680.5157471,155.4329376h-25.6899414v-18.8125h19.7685547c0.2763672,0,0.5-0.2236328,0.5-0.5
		v-4.7070312c0-0.2763672-0.2236328-0.5-0.5-0.5h-19.7685547V112.479805h24.3232422c0.2763672,0,0.5-0.2236328,0.5-0.5v-4.7060547
		c0-0.2763672-0.2236328-0.5-0.5-0.5h-30.0610352c-0.2763672,0-0.5,0.2236328-0.5,0.5v53.3662186c0,0.2763672,0.2236328,0.5,0.5,0.5
		h31.4277344c0.2763672,0,0.5-0.2236328,0.5-0.5v-4.7070312
		C681.0157471,155.6565704,680.7921143,155.4329376,680.5157471,155.4329376z"/>
	<g>
		<polygon style="fill:#D4B95E;" points="139.5523987,91.5568314 101.1412659,69.1777191 101.1412659,24.2969112 
			177.9825439,68.739418 		"/>
		<polygon style="fill:#D4B95E;" points="62.7111168,135.9504395 24.2999821,113.5713272 24.2999821,68.6905212 
			101.1412659,113.1330261 		"/>
		<path style="fill:#F5F7F5;" d="M179.3333435,66.4030914l-76.8411789-44.4423332l-0.0006561-0.0002651
			c-0.0009232-0.0005264-0.0014496-0.0010529-0.0014496-0.0010529c-0.6183319-0.357399-1.3427505-0.4481983-2.0164261-0.2759571
			c-0.0080414,0.0021095-0.0164719,0.002636-0.0245132,0.0048771c-0.0697174,0.0184498-0.1374512,0.0450706-0.2058487,0.0693188
			c-0.0433578,0.0152855-0.0876312,0.0264874-0.1303329,0.0440159c-0.0448074,0.0184498-0.0872421,0.0436192-0.1312561,0.0645733
			c-0.0632553,0.0301781-0.1275635,0.0574589-0.1889801,0.0929089c-0.0005264,0.0002632-0.0010529,0.0007896-0.0010529,0.0007896
			l-0.0015793,0.0007915L23.3616333,66.164299c-0.1402187,0.0521851-0.2780647,0.1120148-0.4101124,0.1881866
			c-0.8355103,0.4818039-1.350523,1.3731918-1.350523,2.3378448v44.8809128c0,0.9604416,0.5102692,1.8486633,1.3405075,2.3320541
			l38.0671463,22.1784592c0.1050339,0.086319,0.2152023,0.1673737,0.3342056,0.2380066l38.4298172,22.817627
			c0.4248657,0.2524872,0.9013977,0.378479,1.3779297,0.378479c0.4691544,0,0.9388351-0.1222992,1.358429-0.3668823
			l38.4113617-22.3790436c0.830246-0.4833832,1.3405151-1.3716125,1.3405151-2.3320618V93.0875168l37.0993195-22.0277023
			c0.8239136-0.4886551,1.3262787-1.3779373,1.3210144-2.3357468
			C180.6759644,67.7657394,180.1630554,66.882782,179.3333435,66.4030914z M101.6988297,110.3380508L68.7248764,91.2667923
			l32.4188766-18.9638596l33.037735,19.2482452L101.6988297,110.3380508z M98.4421768,67.6297379L63.3495331,88.1578751
			l-13.9415703-8.0634766l49.034214-28.004509V67.6297379z M98.4421768,45.8737679L44.0003357,76.9667664l-14.2674694-8.2519226
			l68.7093124-39.7389565V45.8737679z M26.9988747,73.4216461l34.9370117,20.2343903
			c0.1728973,0.0998917,0.3554192,0.1742172,0.5413666,0.2328644l33.3260841,19.2748642l-33.1052132,19.6553268
			l-35.6992493-20.7992096V73.4216461z M136.8630371,96.2358398v16.8978806l-54.7261047,31.2550888l-14.0783615-8.3589325
			L136.8630371,96.2358398z M101.1637878,155.6857452l-13.6905212-8.1285706l49.3897705-28.2073288v15.5366745
			L101.1637878,155.6857452z M139.5393066,88.4257889l-35.6992493-20.7992172V28.9758873L172.644516,68.769928
			L139.5393066,88.4257889z"/>
	</g>
</g>
<g>
</g>
<g>
</g>
<g>
</g>
<g>
</g>
<g>
</g>
<g>
</g>
</svg>
