<?xml version="1.0" encoding="utf-8"?>
<!-- Generator: Adobe Illustrator 20.1.0, SVG Export Plug-In . SVG Version: 6.00 Build 0)  -->
<svg version="1.1" id="Layer_1" xmlns="http://www.w3.org/2000/svg" xmlns:xlink="http://www.w3.org/1999/xlink" x="0px" y="0px"
	 viewBox="0 0 202.2802734 183.0327148" style="enable-background:new 0 0 202.2802734 183.0327148;" xml:space="preserve">
<rect x="9.6237793" y="-9.6237793" transform="matrix(-1.836970e-16 1 -1 -1.836970e-16 192.6564941 -9.6237793)" width="183.0327148" height="202.2802734"/>
<g>
	<polygon style="fill:#B9B9B9;" points="139.5515594,91.4736862 101.1404343,69.094574 101.1404343,24.2137661 
		177.98172,68.6562729 	"/>
	<polygon style="fill:#B9B9B9;" points="62.7102852,135.8672943 24.2991505,113.4881821 24.2991505,68.6073761 
		101.1404343,113.049881 	"/>
	<path style="fill:#FFFFFF;" d="M179.3325195,66.3199463L102.491333,21.8776131l-0.0006561-0.0002651
		c-0.0009232-0.0005264-0.0014496-0.0010529-0.0014496-0.0010529c-0.6183319-0.357399-1.3427505-0.4481983-2.0164261-0.2759571
		c-0.0080414,0.0021095-0.0164719,0.002636-0.0245132,0.0048771c-0.0697174,0.0184498-0.1374512,0.0450687-0.2058487,0.0693188
		c-0.0433578,0.0152855-0.0876312,0.0264874-0.1303329,0.0440159c-0.0448074,0.0184498-0.0872421,0.0436192-0.1312561,0.0645733
		c-0.0632553,0.0301781-0.1275635,0.057457-0.1889801,0.092907c-0.0005264,0.0002651-0.0010529,0.0007915-0.0010529,0.0007915
		l-0.0015793,0.0007915L23.3608017,66.0811539c-0.1402187,0.0521851-0.2780647,0.1120148-0.4101124,0.1881866
		c-0.8355103,0.4818039-1.350523,1.3731918-1.350523,2.3378448v44.8809128c0,0.9604416,0.5102692,1.8486633,1.3405075,2.3320541
		l38.0671463,22.1784592c0.1050339,0.086319,0.2152023,0.1673737,0.3342056,0.2380066l38.4298172,22.817627
		c0.4248657,0.2524872,0.9013977,0.378479,1.3779297,0.378479c0.4691544,0,0.9388351-0.1222992,1.358429-0.3668823
		l38.4113693-22.3790436c0.830246-0.4833832,1.3404999-1.3716125,1.3404999-2.3320618V93.0043716l37.0993347-22.0277023
		c0.8239136-0.4886551,1.3262787-1.3779373,1.3209991-2.3357468
		C180.6751404,67.6825943,180.1622314,66.7996368,179.3325195,66.3199463z M101.697998,110.2549057L68.7240448,91.1836472
		l32.4188766-18.9638596l33.0377426,19.2482452L101.697998,110.2549057z M98.4413452,67.5465927L63.3487015,88.0747299
		l-13.9415703-8.0634766l49.034214-28.004509V67.5465927z M98.4413452,45.7906227L43.9995041,76.8836212l-14.2674694-8.2519226
		l68.7093124-39.7389565V45.7906227z M26.9980431,73.338501l34.9370117,20.2343903
		c0.1728973,0.0998917,0.3554192,0.1742172,0.5413666,0.2328644l33.3260841,19.2748642l-33.1052132,19.6553268
		l-35.6992493-20.7992096V73.338501z M136.8621979,96.1526947v16.8978806l-54.7260971,31.2550888l-14.0783615-8.3589325
		L136.8621979,96.1526947z M101.1629562,155.6026001l-13.6905212-8.1285706l49.3897629-28.2073288v15.5366745
		L101.1629562,155.6026001z M139.5384674,88.3426437l-35.6992416-20.7992172V28.8927422l68.8044662,39.7940407
		L139.5384674,88.3426437z"/>
</g>
<g>
</g>
<g>
</g>
<g>
</g>
<g>
</g>
<g>
</g>
<g>
</g>
</svg>
